<svg width="38" height="38" viewBox="0 0 38 38" fill="none" xmlns="http://www.w3.org/2000/svg">
<circle cx="19" cy="19" r="18.5" fill="#60D099" stroke="#60D099"/>
<path fill-rule="evenodd" clip-rule="evenodd" d="M11.489 25.0659C10.9565 24.7351 10.6309 24.1461 10.6309 23.5137V19.982C10.6309 19.8468 10.6665 19.7164 10.7331 19.6005C10.9399 19.2385 11.3987 19.1153 11.7553 19.3278L19.6049 23.9747C20.0637 24.2475 20.3466 24.7448 20.3466 25.2856V28.9452C20.3466 29.1117 20.3015 29.2783 20.2159 29.4207C19.9568 29.8505 19.4052 29.9856 18.9821 29.7225L11.489 25.0659ZM23.1898 18.3598C23.6486 18.6325 23.9315 19.1298 23.9315 19.6706V27.096C23.9315 27.3157 23.815 27.5185 23.6272 27.6247L21.9084 28.6072C21.8871 28.6193 21.8633 28.6289 21.8395 28.6362V24.513C21.8395 23.9796 21.5637 23.4847 21.1121 23.2095L14.2181 19.0212V14.367C14.2181 14.2318 14.2538 14.1014 14.3203 13.9856C14.5272 13.6235 14.9859 13.5003 15.3425 13.7128L23.1898 18.3598ZM26.6249 12.8751C27.0861 13.1455 27.369 13.6476 27.369 14.1883V25.0345C27.369 25.2566 27.2477 25.4618 27.0552 25.568L25.4268 26.4611V18.9101C25.4268 18.3766 25.151 17.8842 24.7017 17.609L17.6556 13.3169V8.90164C17.6556 8.76645 17.6913 8.63611 17.7554 8.52025C17.9623 8.15818 18.421 8.03502 18.7776 8.24503L26.6249 12.8751Z" fill="white"/>
</svg>
