<svg width="38" height="38" viewBox="0 0 38 38" fill="none" xmlns="http://www.w3.org/2000/svg">
<path d="M0 19C0 8.50659 8.50659 0 19 0C29.4934 0 38 8.50659 38 19C38 29.4934 29.4934 38 19 38C8.50659 38 0 29.4934 0 19Z" fill="#37474F"/>
<path fill-rule="evenodd" clip-rule="evenodd" d="M12.1127 18.7291C12.1127 18.7291 8.84762 16.9794 12.3717 15.0759C12.3717 15.0759 12.3511 8.14258 19.0002 8.14258C25.6493 8.14258 25.6315 15.0759 25.6315 15.0759C29.1862 16.9995 25.837 18.7625 25.837 18.7625L19.0025 22.7319L12.1127 18.7291ZM11.6081 19.3834L19.0032 23.8018L26.3978 19.3862L19.0032 29.8569L11.6081 19.3834Z" fill="white"/>
</svg>
