<svg width="14" height="15" viewBox="0 0 14 15" fill="none" xmlns="http://www.w3.org/2000/svg">
<path d="M7.00008 13.3333C3.77833 13.3333 1.16675 10.7217 1.16675 7.49996C1.16675 4.27821 3.77833 1.66663 7.00008 1.66663C10.2218 1.66663 12.8334 4.27821 12.8334 7.49996C12.8334 10.7217 10.2218 13.3333 7.00008 13.3333ZM7.00008 12.1666C8.23776 12.1666 9.42474 11.675 10.2999 10.7998C11.1751 9.92462 11.6667 8.73764 11.6667 7.49996C11.6667 6.26228 11.1751 5.0753 10.2999 4.20013C9.42474 3.32496 8.23776 2.83329 7.00008 2.83329C5.7624 2.83329 4.57542 3.32496 3.70025 4.20013C2.82508 5.0753 2.33341 6.26228 2.33341 7.49996C2.33341 8.73764 2.82508 9.92462 3.70025 10.7998C4.57542 11.675 5.7624 12.1666 7.00008 12.1666ZM6.41675 4.58329H7.58342V5.74996H6.41675V4.58329ZM6.41675 6.91663H7.58342V10.4166H6.41675V6.91663Z" fill="#7B7F93"/>
</svg>
