<svg width="360" height="111" viewBox="0 0 360 111" fill="none" xmlns="http://www.w3.org/2000/svg">
<path d="M183.285 30.1649V78.6449H171.477V70.8689C170.005 73.5569 167.893 75.6689 165.141 77.2049C162.389 78.6769 159.253 79.4129 155.733 79.4129C151.509 79.4129 147.765 78.3889 144.501 76.3409C141.237 74.2929 138.709 71.3809 136.917 67.6049C135.125 63.8289 134.229 59.4449 134.229 54.4529C134.229 49.4609 135.125 45.0449 136.917 41.2049C138.773 37.3009 141.333 34.2929 144.597 32.1809C147.861 30.0049 151.573 28.9169 155.733 28.9169C159.253 28.9169 162.389 29.6849 165.141 31.2209C167.893 32.6929 170.005 34.7729 171.477 37.4609V30.1649H183.285ZM158.997 70.0049C162.965 70.0049 166.037 68.6289 168.213 65.8769C170.389 63.1249 171.477 59.2529 171.477 54.2609C171.477 49.1409 170.389 45.2049 168.213 42.4529C166.037 39.7009 162.933 38.3249 158.901 38.3249C154.933 38.3249 151.829 39.7649 149.589 42.6449C147.413 45.4609 146.325 49.3969 146.325 54.4529C146.325 59.4449 147.413 63.2849 149.589 65.9729C151.829 68.6609 154.965 70.0049 158.997 70.0049ZM243.586 30.1649C243.01 34.0049 242.722 38.5809 242.722 43.8929V99.3809H230.722V71.2529C229.25 73.8769 227.138 75.8929 224.386 77.3009C221.698 78.7089 218.626 79.4129 215.17 79.4129C210.946 79.4129 207.202 78.3889 203.938 76.3409C200.674 74.2929 198.146 71.3809 196.354 67.6049C194.562 63.8289 193.666 59.4449 193.666 54.4529C193.666 49.4609 194.562 45.0449 196.354 41.2049C198.21 37.3009 200.77 34.2929 204.034 32.1809C207.298 30.0049 211.01 28.9169 215.17 28.9169C218.882 28.9169 222.178 29.7489 225.058 31.4129C227.938 33.0769 230.05 35.4129 231.394 38.4209L232.258 30.1649H243.586ZM218.434 70.0049C222.402 70.0049 225.474 68.6289 227.65 65.8769C229.826 63.1249 230.914 59.2529 230.914 54.2609C230.914 49.1409 229.826 45.2049 227.65 42.4529C225.474 39.7009 222.37 38.3249 218.338 38.3249C214.37 38.3249 211.266 39.7649 209.026 42.6449C206.85 45.4609 205.762 49.3969 205.762 54.4529C205.762 59.4449 206.85 63.2849 209.026 65.9729C211.266 68.6609 214.402 70.0049 218.434 70.0049ZM299.952 30.1649V78.6449H288.24V71.1569C286.704 73.8449 284.656 75.8929 282.096 77.3009C279.536 78.7089 276.592 79.4129 273.264 79.4129C261.424 79.4129 255.504 72.7569 255.504 59.4449V30.1649H267.408V59.5409C267.408 63.0609 268.112 65.6529 269.52 67.3169C270.992 68.9809 273.232 69.8129 276.24 69.8129C279.76 69.8129 282.576 68.6609 284.688 66.3569C286.8 64.0529 287.856 60.9809 287.856 57.1409V30.1649H299.952ZM359.347 30.1649V78.6449H347.539V70.8689C346.067 73.5569 343.955 75.6689 341.203 77.2049C338.451 78.6769 335.315 79.4129 331.795 79.4129C327.571 79.4129 323.827 78.3889 320.563 76.3409C317.299 74.2929 314.771 71.3809 312.979 67.6049C311.187 63.8289 310.291 59.4449 310.291 54.4529C310.291 49.4609 311.187 45.0449 312.979 41.2049C314.835 37.3009 317.395 34.2929 320.659 32.1809C323.923 30.0049 327.635 28.9169 331.795 28.9169C335.315 28.9169 338.451 29.6849 341.203 31.2209C343.955 32.6929 346.067 34.7729 347.539 37.4609V30.1649H359.347ZM335.059 70.0049C339.027 70.0049 342.099 68.6289 344.275 65.8769C346.451 63.1249 347.539 59.2529 347.539 54.2609C347.539 49.1409 346.451 45.2049 344.275 42.4529C342.099 39.7009 338.995 38.3249 334.963 38.3249C330.995 38.3249 327.891 39.7649 325.651 42.6449C323.475 45.4609 322.387 49.3969 322.387 54.4529C322.387 59.4449 323.475 63.2849 325.651 65.9729C327.891 68.6609 331.027 70.0049 335.059 70.0049Z" fill="#0034B9"/>
<path d="M93.4984 18.0256C93.0611 24.9279 85.3574 30.0578 76.2916 29.4834C43.3407 17.7474 19.2854 59.5661 19.7227 52.6638C20.16 45.7614 55.225 0.845882 77.8752 4.48772C86.941 5.0621 93.9357 11.1232 93.4984 18.0256Z" fill="url(#paint0_linear)"/>
<path d="M53.0377 59.1186C52.2614 71.3725 34.159 75.5591 29.578 75.2688C24.997 74.9786 17.5215 69.1714 18.2978 56.9176C19.0742 44.6637 42.7591 31.2301 47.3401 31.5203C39.634 41.8094 31.2958 63.6196 53.0377 59.1186Z" fill="url(#paint1_radial)"/>
<path d="M42.2121 80.2365C38.7942 73.5813 55.45 56.5066 65.3009 52.4608C75.1519 48.415 81.1079 46.4422 90.3262 54.553C99.5444 62.6637 92.1838 84.8932 89.1517 88.3393C85.7271 75.9489 76.0506 52.5198 42.2121 80.2365Z" fill="url(#paint2_radial)"/>
<path d="M34.9322 88.9776C28.3746 95.8137 18.8839 99.8152 11.8715 96.1633C4.85912 92.5114 14.5394 62.5961 18.5003 54.9904C14.952 89.0113 63.0241 49.1174 71.6593 50.2866C54.5447 62.6639 42.2462 81.353 34.9322 88.9776Z" fill="url(#paint3_linear)"/>
<path d="M111.097 68.9927C117.09 81.4321 103.377 94.6263 97.6505 94.6264C91.9242 94.6266 87.9448 92.5547 84.4028 82.593C81.7396 66.743 88.2159 61.8266 82.4485 49.7257C99.9073 51.99 94.3764 87.4853 111.097 68.9927Z" fill="url(#paint4_linear)"/>
<defs>
<linearGradient id="paint0_linear" x1="19.3181" y1="59.049" x2="96.7601" y2="43.4899" gradientUnits="userSpaceOnUse">
<stop stop-color="#07DEFB"/>
<stop offset="0.358199" stop-color="#2680D7"/>
<stop offset="1" stop-color="#531EA3"/>
</linearGradient>
<radialGradient id="paint1_radial" cx="0" cy="0" r="1" gradientUnits="userSpaceOnUse" gradientTransform="translate(50.2351 56.808) rotate(168.748) scale(42.3479 32.916)">
<stop stop-color="#E66F3F"/>
<stop offset="0.28125" stop-color="#D7D13F"/>
<stop offset="0.526042" stop-color="#6FDC49"/>
<stop offset="0.760417" stop-color="#2D94BF"/>
<stop offset="1" stop-color="#F006F4"/>
</radialGradient>
<radialGradient id="paint2_radial" cx="0" cy="0" r="1" gradientUnits="userSpaceOnUse" gradientTransform="translate(56.2152 73.6914) rotate(-30.0854) scale(56.6383 32.213)">
<stop stop-color="#E66F3F"/>
<stop offset="0.28125" stop-color="#D7D13F"/>
<stop offset="0.526042" stop-color="#6FDC49"/>
<stop offset="0.760417" stop-color="#2D94BF"/>
<stop offset="1" stop-color="#F006F4"/>
</radialGradient>
<linearGradient id="paint3_linear" x1="-3.16832" y1="96.5986" x2="44.7702" y2="114.158" gradientUnits="userSpaceOnUse">
<stop stop-color="#07DEFB"/>
<stop offset="0.358199" stop-color="#2680D7"/>
<stop offset="1" stop-color="#531EA3"/>
</linearGradient>
<linearGradient id="paint4_linear" x1="101.434" y1="102.232" x2="120.985" y2="72.5699" gradientUnits="userSpaceOnUse">
<stop stop-color="#07DEFB"/>
<stop offset="0.358199" stop-color="#2680D7"/>
<stop offset="1" stop-color="#531EA3"/>
</linearGradient>
</defs>
</svg>
