<svg width="176" height="162" viewBox="0 0 176 162" fill="none" xmlns="http://www.w3.org/2000/svg">
<path d="M138.148 25.2418C137.505 35.3915 126.176 42.9348 112.845 42.0902C64.392 24.8328 29.0192 86.3262 29.6622 76.1764C30.3053 66.0267 81.8675 -0.0205732 115.174 5.33467C128.505 6.17929 138.791 15.092 138.148 25.2418Z" fill="url(#paint0_linear)"/>
<path d="M78.6506 85.6685C77.5089 103.688 50.8898 109.844 44.1536 109.417C37.4173 108.99 26.4247 100.451 27.5663 82.4319C28.708 64.4129 63.5361 44.6591 70.2724 45.0859C58.9406 60.2158 46.6796 92.2872 78.6506 85.6685Z" fill="url(#paint1_radial)"/>
<path d="M62.7314 116.722C57.7054 106.935 82.1974 81.8274 96.6829 75.8782C111.168 69.9289 119.927 67.028 133.482 78.9546C147.037 90.8813 136.214 123.569 131.755 128.637C126.719 110.417 112.49 75.9649 62.7314 116.722Z" fill="url(#paint2_radial)"/>
<path d="M52.0271 129.575C42.3843 139.627 28.4284 145.512 18.1168 140.142C7.80528 134.772 22.0399 90.7818 27.8643 79.5977C22.6466 129.625 93.3355 70.9617 106.033 72.681C80.8667 90.8814 62.7821 118.363 52.0271 129.575Z" fill="url(#paint3_linear)"/>
<path d="M164.025 100.188C172.837 118.479 152.672 137.881 144.252 137.881C135.831 137.882 129.98 134.835 124.771 120.187C120.855 96.8795 130.378 89.6501 121.898 71.856C147.57 75.1855 139.437 127.381 164.025 100.188Z" fill="url(#paint4_linear)"/>
<defs>
<linearGradient id="paint0_linear" x1="29.0673" y1="85.5658" x2="142.944" y2="62.6865" gradientUnits="userSpaceOnUse">
<stop stop-color="#07DEFB"/>
<stop offset="0.358199" stop-color="#2680D7"/>
<stop offset="1" stop-color="#531EA3"/>
</linearGradient>
<radialGradient id="paint1_radial" cx="0" cy="0" r="1" gradientUnits="userSpaceOnUse" gradientTransform="translate(74.5293 82.2709) rotate(168.748) scale(62.2716 48.4022)">
<stop stop-color="#E66F3F"/>
<stop offset="0.28125" stop-color="#D7D13F"/>
<stop offset="0.526042" stop-color="#6FDC49"/>
<stop offset="0.760417" stop-color="#2D94BF"/>
<stop offset="1" stop-color="#F006F4"/>
</radialGradient>
<radialGradient id="paint2_radial" cx="0" cy="0" r="1" gradientUnits="userSpaceOnUse" gradientTransform="translate(83.3226 107.097) rotate(-30.0854) scale(83.2853 47.3685)">
<stop stop-color="#E66F3F"/>
<stop offset="0.28125" stop-color="#D7D13F"/>
<stop offset="0.526042" stop-color="#6FDC49"/>
<stop offset="0.760417" stop-color="#2D94BF"/>
<stop offset="1" stop-color="#F006F4"/>
</radialGradient>
<linearGradient id="paint3_linear" x1="-3.99887" y1="140.782" x2="66.4937" y2="166.602" gradientUnits="userSpaceOnUse">
<stop stop-color="#07DEFB"/>
<stop offset="0.358199" stop-color="#2680D7"/>
<stop offset="1" stop-color="#531EA3"/>
</linearGradient>
<linearGradient id="paint4_linear" x1="149.815" y1="149.065" x2="178.564" y2="105.448" gradientUnits="userSpaceOnUse">
<stop stop-color="#07DEFB"/>
<stop offset="0.358199" stop-color="#2680D7"/>
<stop offset="1" stop-color="#531EA3"/>
</linearGradient>
</defs>
</svg>
