<svg width="32" height="32" viewBox="0 0 32 32" fill="none" xmlns="http://www.w3.org/2000/svg">
<path d="M15.9993 16C16.7357 16 17.3327 15.4031 17.3327 14.6667C17.3327 13.9303 16.7357 13.3334 15.9993 13.3334C15.263 13.3334 14.666 13.9303 14.666 14.6667C14.666 15.4031 15.263 16 15.9993 16Z" fill="black"/>
<path d="M21.3333 16C22.0697 16 22.6667 15.4031 22.6667 14.6667C22.6667 13.9303 22.0697 13.3334 21.3333 13.3334C20.597 13.3334 20 13.9303 20 14.6667C20 15.4031 20.597 16 21.3333 16Z" fill="black"/>
<path d="M10.6654 16C11.4017 16 11.9987 15.4031 11.9987 14.6667C11.9987 13.9303 11.4017 13.3334 10.6654 13.3334C9.92898 13.3334 9.33203 13.9303 9.33203 14.6667C9.33203 15.4031 9.92898 16 10.6654 16Z" fill="black"/>
<path d="M25.3327 4H6.66602C5.60515 4 4.58773 4.42143 3.83759 5.17157C3.08744 5.92172 2.66602 6.93913 2.66602 8V28C2.66642 28.2363 2.7296 28.4682 2.84908 28.672C2.96857 28.8758 3.14006 29.0442 3.34602 29.16C3.54529 29.2729 3.7703 29.3326 3.99935 29.3333C4.23866 29.3333 4.47354 29.2688 4.67935 29.1467L10.666 25.52C10.8873 25.3883 11.142 25.3234 11.3993 25.3333H25.3327C26.3935 25.3333 27.411 24.9119 28.1611 24.1618C28.9113 23.4116 29.3327 22.3942 29.3327 21.3333V8C29.3327 6.93913 28.9113 5.92172 28.1611 5.17157C27.411 4.42143 26.3935 4 25.3327 4ZM26.666 21.3333C26.666 21.687 26.5255 22.0261 26.2755 22.2761C26.0254 22.5262 25.6863 22.6667 25.3327 22.6667H11.3993C10.6711 22.6661 9.95654 22.8643 9.33268 23.24L5.33268 25.64V8C5.33268 7.64638 5.47316 7.30724 5.72321 7.05719C5.97326 6.80714 6.31239 6.66667 6.66602 6.66667H25.3327C25.6863 6.66667 26.0254 6.80714 26.2755 7.05719C26.5255 7.30724 26.666 7.64638 26.666 8V21.3333Z" fill="black"/>
</svg>
