<svg width="16" height="16" viewBox="0 0 16 16" fill="none" xmlns="http://www.w3.org/2000/svg">
<path d="M2 7.99998C2 8.73331 2.6 9.33331 3.33333 9.33331C4.06667 9.33331 4.66667 8.73331 4.66667 7.99998C4.66667 7.26665 4.06667 6.66665 3.33333 6.66665C2.6 6.66665 2 7.26665 2 7.99998ZM11.3333 7.99998C11.3333 8.73331 11.9333 9.33331 12.6667 9.33331C13.4 9.33331 14 8.73331 14 7.99998C14 7.26665 13.4 6.66665 12.6667 6.66665C11.9333 6.66665 11.3333 7.26665 11.3333 7.99998ZM6.66667 7.99998C6.66667 8.73331 7.26667 9.33331 8 9.33331C8.73333 9.33331 9.33333 8.73331 9.33333 7.99998C9.33333 7.26665 8.73333 6.66665 8 6.66665C7.26667 6.66665 6.66667 7.26665 6.66667 7.99998Z" fill="#7B7F93"/>
</svg>
