<?xml version="1.0" standalone="no"?>
<!DOCTYPE svg PUBLIC "-//W3C//DTD SVG 20010904//EN"
 "http://www.w3.org/TR/2001/REC-SVG-20010904/DTD/svg10.dtd">
<svg version="1.0" xmlns="http://www.w3.org/2000/svg"
 width="300.000000pt" height="300.000000pt" viewBox="0 0 300.000000 300.000000"
 preserveAspectRatio="xMidYMid meet">
<metadata>
Created by potrace 1.10, written by Peter Selinger 2001-2011
</metadata>
<g transform="translate(0.000000,300.000000) scale(0.100000,-0.100000)"
fill="#000000" stroke="none">
<path d="M1325 2989 c-163 -18 -348 -75 -507 -155 -261 -132 -520 -390 -651
-650 -130 -258 -184 -538 -158 -815 34 -366 174 -664 435 -925 205 -205 410
-323 683 -394 351 -92 725 -50 1057 117 259 131 518 390 649 649 130 258 184
538 158 815 -24 261 -104 487 -249 709 -75 113 -289 327 -402 402 -309 202
-654 286 -1015 247z m310 -561 c98 -20 194 -75 275 -157 136 -137 186 -303
145 -479 -31 -129 -83 -203 -231 -327 -144 -120 -148 -127 -154 -295 -6 -147
-11 -164 -65 -206 -72 -54 -188 -38 -243 34 -27 35 -27 36 -27 196 1 140 3
169 22 219 31 84 101 175 185 242 161 129 179 155 180 249 0 75 -24 130 -78
174 -96 80 -251 61 -323 -39 -30 -41 -35 -55 -46 -142 -18 -133 -185 -192
-286 -100 -53 48 -65 92 -50 185 31 193 175 362 366 429 106 37 209 43 330 17z
m-62 -1692 c41 -17 91 -74 107 -121 38 -114 -57 -239 -180 -239 -123 0 -218
125 -180 239 15 46 65 104 105 121 39 17 107 17 148 0z"/>
</g>
</svg>
