<svg xmlns="http://www.w3.org/2000/svg" id="Layer_1" viewBox="0 0 60 60" width="38" height="38"><linearGradient id="SVGID_1_" x1="7.5" x2="54.017" y1="18.52" y2="18.52" gradientUnits="userSpaceOnUse"><stop offset="0" stop-color="#000092"/><stop offset="1" stop-color="#FF00F3"/></linearGradient><path fill="url(#SVGID_1_)" d="M28.35 15.798a.5.5 0 0 0-.5.5v4.444a.5.5 0 0 0 .5.5h4.444a.5.5 0 0 0 .5-.5 4.975 4.975 0 0 0-1.448-3.496 4.98 4.98 0 0 0-3.496-1.448zm.5 4.444V16.83a3.98 3.98 0 0 1 2.289 1.123 3.969 3.969 0 0 1 1.123 2.289H28.85z"/><linearGradient id="SVGID_2_" x1="7.5" x2="54.017" y1="21.538" y2="21.538" gradientUnits="userSpaceOnUse"><stop offset="0" stop-color="#000092"/><stop offset="1" stop-color="#FF00F3"/></linearGradient><path fill="url(#SVGID_2_)" d="M47.794 25.425a.5.5 0 0 0 .5-.5V18.81a34.27 34.27 0 0 1 2 .643v4.411a.5.5 0 0 0 1 0v-4.762a.5.5 0 0 0-.326-.469 36.237 36.237 0 0 0-3.043-.965.499.499 0 0 0-.631.482v6.774a.5.5 0 0 0 .5.501z"/><linearGradient id="SVGID_3_" x1="7.5" x2="54.017" y1="26.571" y2="26.571" gradientUnits="userSpaceOnUse"><stop offset="0" stop-color="#000092"/><stop offset="1" stop-color="#FF00F3"/></linearGradient><path fill="url(#SVGID_3_)" d="M44.294 22.058v3.64a.5.5 0 0 0 1 0v-4.042a.5.5 0 0 0-.391-.488 56.387 56.387 0 0 0-3.027-.589.501.501 0 0 0-.582.493v11a.5.5 0 0 0 1 0V21.664c.671.119 1.341.251 2 .394z"/><linearGradient id="SVGID_4_" x1="7.5" x2="54.017" y1="28.51" y2="28.51" gradientUnits="userSpaceOnUse"><stop offset="0" stop-color="#000092"/><stop offset="1" stop-color="#FF00F3"/></linearGradient><path fill="url(#SVGID_4_)" d="M38.852 25.155a72.468 72.468 0 0 0-3.021-.286.5.5 0 0 0-.536.499v6a.5.5 0 0 0 .464.499c1.016.073 2.009.169 2.979.282a.503.503 0 0 0 .558-.497v-6a.504.504 0 0 0-.444-.497zm-.558 5.938a71.205 71.205 0 0 0-2-.188v-4.996a75.1 75.1 0 0 1 2 .19v4.994z"/><linearGradient id="SVGID_5_" x1="7.5" x2="54.017" y1="18.093" y2="18.093" gradientUnits="userSpaceOnUse"><stop offset="0" stop-color="#000092"/><stop offset="1" stop-color="#FF00F3"/></linearGradient><path fill="url(#SVGID_5_)" d="M35.757 18.545c.193.014.38.033.566.052l.428.042.044.002a.5.5 0 0 0 .042-.998l-.412-.04c-.195-.021-.392-.04-.594-.056a.501.501 0 0 0-.074.998z"/><linearGradient id="SVGID_6_" x1="7.5" x2="54.017" y1="16.093" y2="16.093" gradientUnits="userSpaceOnUse"><stop offset="0" stop-color="#000092"/><stop offset="1" stop-color="#FF00F3"/></linearGradient><path fill="url(#SVGID_6_)" d="M35.757 16.545c.193.014.38.033.566.052l.428.042.044.002a.5.5 0 0 0 .042-.998l-.412-.04c-.195-.021-.392-.04-.594-.056a.501.501 0 0 0-.074.998z"/><linearGradient id="SVGID_7_" x1="7.5" x2="54.017" y1="14.093" y2="14.093" gradientUnits="userSpaceOnUse"><stop offset="0" stop-color="#000092"/><stop offset="1" stop-color="#FF00F3"/></linearGradient><path fill="url(#SVGID_7_)" d="M35.757 14.545c.193.014.38.033.566.052l.428.042.044.002a.5.5 0 0 0 .042-.998l-.412-.04c-.195-.021-.392-.04-.594-.056a.5.5 0 0 0-.074.998z"/><linearGradient id="SVGID_8_" x1="7.5" x2="54.017" y1="14.541" y2="14.541" gradientUnits="userSpaceOnUse"><stop offset="0" stop-color="#000092"/><stop offset="1" stop-color="#FF00F3"/></linearGradient><path fill="url(#SVGID_8_)" d="M38.736 14.828c1.048.121 2.049.261 2.976.415a.5.5 0 0 0 .164-.986 62.992 62.992 0 0 0-3.024-.423.508.508 0 0 0-.555.439.501.501 0 0 0 .439.555z"/><linearGradient id="SVGID_9_" x1="7.5" x2="54.017" y1="16.541" y2="16.541" gradientUnits="userSpaceOnUse"><stop offset="0" stop-color="#000092"/><stop offset="1" stop-color="#FF00F3"/></linearGradient><path fill="url(#SVGID_9_)" d="M38.736 16.828c1.048.121 2.049.261 2.976.415a.5.5 0 0 0 .164-.986 62.992 62.992 0 0 0-3.024-.423.51.51 0 0 0-.555.439.501.501 0 0 0 .439.555z"/><linearGradient id="SVGID_10_" x1="7.5" x2="54.017" y1="18.54" y2="18.54" gradientUnits="userSpaceOnUse"><stop offset="0" stop-color="#000092"/><stop offset="1" stop-color="#FF00F3"/></linearGradient><path fill="url(#SVGID_10_)" d="M38.736 18.828c1.048.121 2.049.261 2.976.415a.5.5 0 0 0 .164-.986 62.992 62.992 0 0 0-3.024-.423.501.501 0 0 0-.116.994z"/><linearGradient id="SVGID_11_" x1="7.5" x2="54.017" y1="46.733" y2="46.733" gradientUnits="userSpaceOnUse"><stop offset="0" stop-color="#000092"/><stop offset="1" stop-color="#FF00F3"/></linearGradient><circle cx="13.784" cy="46.733" r=".5" fill="url(#SVGID_11_)"/><linearGradient id="SVGID_12_" x1="7.5" x2="54.017" y1="45.513" y2="45.513" gradientUnits="userSpaceOnUse"><stop offset="0" stop-color="#000092"/><stop offset="1" stop-color="#FF00F3"/></linearGradient><circle cx="9.805" cy="45.513" r=".5" fill="url(#SVGID_12_)"/><linearGradient id="SVGID_13_" x1="7.5" x2="54.017" y1="45.513" y2="45.513" gradientUnits="userSpaceOnUse"><stop offset="0" stop-color="#000092"/><stop offset="1" stop-color="#FF00F3"/></linearGradient><circle cx="50.784" cy="45.513" r=".5" fill="url(#SVGID_13_)"/><linearGradient id="SVGID_14_" x1="7.5" x2="54.017" y1="46.048" y2="46.048" gradientUnits="userSpaceOnUse"><stop offset="0" stop-color="#000092"/><stop offset="1" stop-color="#FF00F3"/></linearGradient><circle cx="48.793" cy="46.048" r=".5" fill="url(#SVGID_14_)"/><linearGradient id="SVGID_15_" x1="7.5" x2="54.017" y1="46.733" y2="46.733" gradientUnits="userSpaceOnUse"><stop offset="0" stop-color="#000092"/><stop offset="1" stop-color="#FF00F3"/></linearGradient><circle cx="46.805" cy="46.733" r=".5" fill="url(#SVGID_15_)"/><linearGradient id="SVGID_16_" x1="7.5" x2="54.017" y1="22.52" y2="22.52" gradientUnits="userSpaceOnUse"><stop offset="0" stop-color="#000092"/><stop offset="1" stop-color="#FF00F3"/></linearGradient><path fill="url(#SVGID_16_)" d="M32.35 22.021h-5.277v-5.278a.5.5 0 0 0-.5-.5 6.285 6.285 0 0 0-6.278 6.278 6.285 6.285 0 0 0 6.278 6.277 6.284 6.284 0 0 0 6.277-6.277.5.5 0 0 0-.5-.5zm-5.778 5.777a5.284 5.284 0 0 1-5.278-5.277 5.286 5.286 0 0 1 4.778-5.255v5.255a.5.5 0 0 0 .5.5h5.254a5.285 5.285 0 0 1-5.254 4.777z"/><linearGradient id="SVGID_17_" x1="7.5" x2="54.017" y1="30.549" y2="30.549" gradientUnits="userSpaceOnUse"><stop offset="0" stop-color="#000092"/><stop offset="1" stop-color="#FF00F3"/></linearGradient><path fill="url(#SVGID_17_)" d="M30.294 10.669c-15.141 0-27 4.173-27 9.5v22c0 3.48 5.034 6.563 13.467 8.248a.5.5 0 0 0 .598-.49V34.842c7.895-1.527 17.977-1.527 25.872 0v15.085a.501.501 0 0 0 .598.491c8.432-1.685 13.466-4.768 13.466-8.248v-22c-.001-5.328-11.86-9.501-27.001-9.501zM16.358 49.313c-7.35-1.563-12.064-4.341-12.064-7.144V22.795c.028.036.07.07.099.107.177.216.375.428.594.637.058.055.112.111.172.166.271.245.568.486.895.721.06.043.126.084.187.127.288.199.597.394.925.585.093.054.183.108.279.161.396.221.814.436 1.262.644.065.03.136.059.202.089.4.181.822.356 1.261.527.127.049.253.099.384.147.237.088.481.174.729.26.004.001.006.005.01.006.006.002.012.001.017.003.28.096.558.192.851.284.051.016.106.03.157.046.522.161 1.068.314 1.629.461l.476.123c.625.157 1.265.308 1.935.447v20.977zm1-15.488v-1.981c.499-.097 1-.192 1.518-.278a.5.5 0 0 0-.164-.986c-.462.077-.907.163-1.354.248v-2.9a.5.5 0 0 0-.402-.49 42.072 42.072 0 0 1-4.843-1.257l.347-.952a43.407 43.407 0 0 0 2.853.758.5.5 0 0 0 .574-.301l2.136-4.275.295.767a.5.5 0 0 0 .934-.359l-.693-1.8-.006-.017-.019-.051a.498.498 0 0 0-.647-.287l-1.866.719a.5.5 0 0 0 .359.933l.709-.273-1.937 3.878a45.047 45.047 0 0 1-1.232-.313c-.559-.15-1.098-.31-1.615-.475a.502.502 0 0 0-.621.306l-.516 1.415a23.528 23.528 0 0 1-2.875-1.25v-4.433a.5.5 0 0 0-1 0v3.861c-1.917-1.196-3-2.525-3-3.861 0-4.607 11.906-8.5 26-8.5s26 3.893 26 8.5c0 2.878-4.97 5.73-12.661 7.268a.5.5 0 0 0-.402.49v5.898c-7.926-1.505-17.946-1.506-25.872-.002zm38.936-11.03v19.374c0 2.803-4.714 5.581-12.063 7.145V28.335a49.247 49.247 0 0 0 4.043-1.031l.153-.045a31.052 31.052 0 0 0 1.609-.554c.129-.048.254-.097.38-.146.441-.171.864-.347 1.266-.529.065-.029.135-.057.198-.087.449-.208.868-.424 1.264-.645.095-.053.184-.106.276-.16.329-.192.639-.387.928-.587.061-.042.127-.083.186-.126.327-.235.624-.476.895-.721.06-.055.114-.11.172-.165.219-.209.417-.422.594-.638.029-.036.071-.07.099-.106z"/><linearGradient id="SVGID_18_" x1="7.5" x2="54.017" y1="46.198" y2="46.198" gradientUnits="userSpaceOnUse"><stop offset="0" stop-color="#000092"/><stop offset="1" stop-color="#FF00F3"/></linearGradient><circle cx="11.793" cy="46.198" r=".5" fill="url(#SVGID_18_)"/></svg>