<svg width="16" height="16" viewBox="0 0 16 16" fill="none" xmlns="http://www.w3.org/2000/svg">
<path d="M6.71733 7.33337C7.11733 7.33337 7.44133 7.63337 7.434 8.00004C7.434 8.36671 7.118 8.66671 6.71733 8.66671C6.324 8.66671 6 8.36671 6 8.00004C6 7.63337 6.31667 7.33337 6.71733 7.33337ZM9.28267 7.33337C9.68333 7.33337 10 7.63337 10 8.00004C10 8.36671 9.68333 8.66671 9.28267 8.66671C8.88933 8.66671 8.566 8.36671 8.566 8.00004C8.566 7.63337 8.882 7.33337 9.28267 7.33337ZM12.594 1.33337C13.3693 1.33337 14 1.97737 14 2.77537V15.3334L12.526 14.0034L11.696 13.2194L10.818 12.386L11.182 13.6814H3.406C2.63067 13.6814 2 13.0374 2 12.2394V2.77537C2 1.97737 2.63067 1.33337 3.406 1.33337H12.5933H12.594ZM9.94733 10.4754C11.4627 10.4267 12.046 9.41137 12.046 9.41137C12.046 7.15737 11.058 5.33004 11.058 5.33004C10.0713 4.57471 9.13133 4.59537 9.13133 4.59537L9.03533 4.70737C10.2013 5.07137 10.7427 5.59671 10.7427 5.59671C10.106 5.23803 9.40443 5.0096 8.67867 4.92471C8.21829 4.87271 7.75329 4.87719 7.294 4.93804C7.25267 4.93804 7.218 4.94537 7.17733 4.95204C6.93733 4.97337 6.354 5.06404 5.62067 5.39337C5.36733 5.51204 5.216 5.59671 5.216 5.59671C5.216 5.59671 5.78533 5.04337 7.01933 4.67937L6.95067 4.59537C6.95067 4.59537 6.01133 4.57471 5.024 5.33071C5.024 5.33071 4.03667 7.15737 4.03667 9.41137C4.03667 9.41137 4.61267 10.426 6.128 10.4754C6.128 10.4754 6.38133 10.1607 6.588 9.89471C5.71667 9.62804 5.388 9.06804 5.388 9.06804C5.388 9.06804 5.456 9.11737 5.57933 9.18737C5.586 9.19404 5.59267 9.20137 5.60667 9.20804C5.62733 9.22271 5.648 9.22937 5.66867 9.24337C5.84 9.34137 6.01133 9.41804 6.16867 9.48137C6.45 9.59337 6.786 9.70537 7.17733 9.78271C7.76355 9.89761 8.36627 9.89988 8.95333 9.78937C9.29528 9.72834 9.62889 9.62743 9.94733 9.48871C10.1873 9.39737 10.4547 9.26404 10.736 9.07537C10.736 9.07537 10.3933 9.64937 9.49467 9.90871C9.70067 10.1747 9.948 10.4754 9.948 10.4754H9.94733Z" fill="#7289DA"/>
</svg>
