<svg width="16" height="16" viewBox="0 0 16 16" fill="none" xmlns="http://www.w3.org/2000/svg">
<path d="M7.99968 1.33337C4.31634 1.33337 1.33301 4.31671 1.33301 8.00004C1.33225 9.39956 1.77222 10.7638 2.59049 11.8992C3.40875 13.0345 4.56377 13.8834 5.89168 14.3254C6.22501 14.3834 6.34968 14.1834 6.34968 14.008C6.34968 13.85 6.34101 13.3254 6.34101 12.7667C4.66634 13.0754 4.23301 12.3587 4.09968 11.9834C4.02434 11.7914 3.69968 11.2 3.41634 11.0414C3.18301 10.9167 2.84968 10.608 3.40768 10.6C3.93301 10.5914 4.30768 11.0834 4.43301 11.2834C5.03301 12.2914 5.99168 12.008 6.37434 11.8334C6.43301 11.4 6.60768 11.1087 6.79968 10.942C5.31634 10.7754 3.76634 10.2 3.76634 7.65004C3.76634 6.92471 4.02434 6.32537 4.44968 5.85804C4.38301 5.69137 4.14968 5.00804 4.51634 4.09137C4.51634 4.09137 5.07434 3.91671 6.34968 4.77537C6.89238 4.62475 7.45312 4.54894 8.01634 4.55004C8.58301 4.55004 9.14968 4.62471 9.68301 4.77471C10.9577 3.90804 11.5163 4.09204 11.5163 4.09204C11.883 5.00871 11.6497 5.69204 11.583 5.85871C12.0077 6.32537 12.2663 6.91671 12.2663 7.65004C12.2663 10.2087 10.7083 10.7754 9.22501 10.942C9.46634 11.15 9.67501 11.55 9.67501 12.1754C9.67501 13.0667 9.66634 13.7834 9.66634 14.0087C9.66634 14.1834 9.79168 14.3914 10.125 14.3247C11.4484 13.8779 12.5983 13.0274 13.4129 11.8928C14.2276 10.7582 14.666 9.39678 14.6663 8.00004C14.6663 4.31671 11.683 1.33337 7.99968 1.33337Z" fill="#333333"/>
</svg>
