<svg width="60" height="19" viewBox="0 0 60 19" fill="none" xmlns="http://www.w3.org/2000/svg">
<g clip-path="url(#clip0)">
<path fill-rule="evenodd" clip-rule="evenodd" d="M0 13.6575V10.8096C0 6.28619 3.66693 2.61926 8.19032 2.61926C10.4215 2.61926 12.4442 3.5114 13.9214 4.95841L12.1802 6.0464C11.1008 5.14126 9.70922 4.59624 8.19032 4.59624C4.75878 4.59624 1.97697 7.37805 1.97697 10.8096H3.95394L0 13.6575ZM4.17047 15.5474C5.25403 16.4678 6.65739 17.023 8.19042 17.023C11.622 17.023 14.4038 14.2411 14.4038 10.8096H12.4268L16.3806 7.91476L16.3807 10.8096C16.3807 15.333 12.7138 18.9999 8.19042 18.9999C5.94545 18.9999 3.91143 18.0967 2.43194 16.6338L4.17047 15.5474ZM11.3323 13.5279H9.07291L8.19042 12.3358L7.30793 13.5279H5.04854L7.09541 10.8566L5.04835 8.09128H7.16655L8.19042 9.42752L9.2143 8.09128H11.3325L9.28543 10.8566L11.3323 13.5279Z" fill="#000629"/>
</g>
<path d="M19.7349 11.9351L21.4452 11.56C21.4652 11.8801 21.5903 12.1501 21.8203 12.3702C22.0603 12.5802 22.3854 12.6852 22.7955 12.6852C23.1055 12.6852 23.3456 12.6152 23.5156 12.4752C23.6857 12.3352 23.7707 12.1601 23.7707 11.9501C23.7707 11.58 23.5056 11.34 22.9755 11.2299L22.0003 11.0049C21.3102 10.8549 20.7901 10.5848 20.44 10.1947C20.1 9.80466 19.9299 9.33957 19.9299 8.79947C19.9299 8.12934 20.19 7.55923 20.7101 7.08914C21.2402 6.61904 21.9003 6.384 22.6905 6.384C23.1906 6.384 23.6306 6.45901 24.0107 6.60904C24.3908 6.74907 24.6859 6.93411 24.8959 7.16415C25.1059 7.38419 25.266 7.60924 25.376 7.83928C25.486 8.06933 25.556 8.29437 25.586 8.51441L23.9207 8.88949C23.8807 8.62944 23.7607 8.39939 23.5606 8.19935C23.3706 7.99931 23.0855 7.89929 22.7055 7.89929C22.4454 7.89929 22.2204 7.96931 22.0303 8.10933C21.8503 8.24936 21.7603 8.4244 21.7603 8.63444C21.7603 8.99451 21.9853 9.21455 22.4354 9.29456L23.4856 9.51961C24.1958 9.66964 24.7359 9.94469 25.1059 10.3448C25.486 10.7448 25.676 11.2249 25.676 11.785C25.676 12.4452 25.426 13.0153 24.9259 13.4954C24.4258 13.9755 23.7207 14.2155 22.8105 14.2155C22.2904 14.2155 21.8253 14.1405 21.4152 13.9905C21.0051 13.8304 20.6851 13.6304 20.455 13.3904C20.235 13.1403 20.065 12.8953 19.9449 12.6552C19.8349 12.4052 19.7649 12.1651 19.7349 11.9351ZM30.8989 6.60904H32.9993L34.5897 11.365L35.9549 6.60904H37.9353L35.6249 13.9905H33.6295L31.9041 8.9495L30.2088 13.9905H28.1834L25.8279 6.60904H27.9284L29.2936 11.35L30.8989 6.60904ZM38.2519 11.9801C38.2519 11.35 38.4569 10.8449 38.867 10.4648C39.2771 10.0847 39.8072 9.84467 40.4573 9.74465L42.2727 9.4746C42.6427 9.42459 42.8278 9.24956 42.8278 8.9495C42.8278 8.66944 42.7178 8.4394 42.4977 8.25936C42.2877 8.07933 41.9826 7.98931 41.5825 7.98931C41.1625 7.98931 40.8274 8.10433 40.5773 8.33438C40.3373 8.56442 40.2023 8.84948 40.1723 9.18954L38.4019 8.81447C38.4719 8.17435 38.787 7.60924 39.3471 7.11914C39.9072 6.62905 40.6474 6.384 41.5675 6.384C42.6677 6.384 43.4779 6.64905 43.998 7.17915C44.5181 7.69925 44.7782 8.36938 44.7782 9.18954V12.8203C44.7782 13.2603 44.8082 13.6504 44.8682 13.9905H43.0378C42.9878 13.7704 42.9628 13.4754 42.9628 13.1053C42.4927 13.8354 41.7676 14.2005 40.7874 14.2005C40.0272 14.2005 39.4121 13.9805 38.942 13.5404C38.4819 13.1003 38.2519 12.5802 38.2519 11.9801ZM41.2075 12.7152C41.6776 12.7152 42.0626 12.5852 42.3627 12.3252C42.6728 12.0551 42.8278 11.615 42.8278 11.0049V10.6748L41.1625 10.9299C40.5523 11.0199 40.2473 11.33 40.2473 11.8601C40.2473 12.1001 40.3323 12.3052 40.5023 12.4752C40.6724 12.6352 40.9074 12.7152 41.2075 12.7152ZM48.3348 16.841H46.3394V6.60904H48.2748V7.50922C48.4548 7.20916 48.7449 6.95911 49.1449 6.75907C49.545 6.54903 50.0101 6.44401 50.5402 6.44401C51.5904 6.44401 52.4206 6.80408 53.0307 7.52422C53.6408 8.23436 53.9459 9.15454 53.9459 10.2848C53.9459 11.415 53.6208 12.3452 52.9707 13.0753C52.3306 13.8054 51.4954 14.1705 50.4652 14.1705C49.485 14.1705 48.7749 13.8705 48.3348 13.2703V16.841ZM51.4554 11.8301C51.8055 11.45 51.9805 10.9399 51.9805 10.2998C51.9805 9.65964 51.8055 9.15454 51.4554 8.78447C51.1153 8.41439 50.6802 8.22936 50.1501 8.22936C49.62 8.22936 49.18 8.41939 48.8299 8.79947C48.4798 9.16954 48.3048 9.66964 48.3048 10.2998C48.3048 10.9299 48.4798 11.435 48.8299 11.8151C49.18 12.1951 49.62 12.3852 50.1501 12.3852C50.6802 12.3852 51.1153 12.2001 51.4554 11.8301ZM59.5765 6.57904V8.58943C59.3765 8.54942 59.1765 8.52942 58.9764 8.52942C58.4063 8.52942 57.9462 8.69445 57.5962 9.02451C57.2461 9.34457 57.0711 9.87468 57.0711 10.6148V13.9905H55.0757V6.60904H57.011V7.70426C57.3711 6.93411 58.0713 6.54903 59.1115 6.54903C59.2215 6.54903 59.3765 6.55903 59.5765 6.57904Z" fill="#000629"/>
<defs>
<clipPath id="clip0">
<rect width="16.3807" height="16.3807" fill="white" transform="translate(0 2.61926)"/>
</clipPath>
</defs>
</svg>
