<svg width="38" height="38" viewBox="0 0 38 38" fill="none" xmlns="http://www.w3.org/2000/svg">
<path d="M0 19C0 8.50659 8.50659 0 19 0C29.4934 0 38 8.50659 38 19C38 29.4934 29.4934 38 19 38C8.50659 38 0 29.4934 0 19Z" fill="url(#paint0_radial)"/>
<path fill-rule="evenodd" clip-rule="evenodd" d="M30.4185 25.7577C30.7072 25.6067 31.0172 25.9441 30.8046 26.1909C28.3345 29.059 24.6765 30.875 20.5944 30.875C13.1555 30.875 7.125 24.8445 7.125 17.4056C7.125 13.3235 8.94094 9.66547 11.8091 7.19537C12.0559 6.98278 12.3932 7.29279 12.2423 7.58149C11.2679 9.4451 10.7168 11.5651 10.7168 13.8138C10.7168 21.2527 16.7473 27.2831 24.1862 27.2831C26.4349 27.2831 28.5549 26.7321 30.4185 25.7577ZM17.7552 20.2448C16.1772 18.6667 16.1772 16.1082 17.7552 14.5302C19.6601 12.6253 26.8033 10.5617 27.1208 10.8792C27.4382 11.1967 25.3746 18.3399 23.4698 20.2448C22.6947 21.0198 21.6832 21.4142 20.6675 21.4279C19.6151 21.4421 18.5582 21.0478 17.7552 20.2448Z" fill="white"/>
<defs>
<radialGradient id="paint0_radial" cx="0" cy="0" r="1" gradientUnits="userSpaceOnUse" gradientTransform="translate(19 19) rotate(90) scale(19)">
<stop stop-color="#1565C0"/>
<stop offset="1" stop-color="#0D47A1"/>
</radialGradient>
</defs>
</svg>
