<svg width="16" height="16" viewBox="0 0 16 16" fill="none" xmlns="http://www.w3.org/2000/svg">
<path d="M7.99967 14.6667C4.31767 14.6667 1.33301 11.682 1.33301 8.00004C1.33301 4.31804 4.31767 1.33337 7.99967 1.33337C11.6817 1.33337 14.6663 4.31804 14.6663 8.00004C14.6663 11.682 11.6817 14.6667 7.99967 14.6667ZM5.92634 8.78004L5.93501 8.77537L6.51501 10.6887C6.58967 10.896 6.69234 10.9334 6.81701 10.916C6.94234 10.8994 7.00834 10.832 7.09034 10.7534L7.88234 9.98804L9.58234 11.2467C9.89301 11.418 10.1163 11.3294 10.1937 10.9587L11.2983 5.74404C11.4203 5.25871 11.207 5.06404 10.8303 5.21871L4.34167 7.72537C3.89901 7.90271 3.90167 8.15071 4.26167 8.26071L5.92634 8.78071V8.78004Z" fill="#0088CC"/>
</svg>
