<svg width="16" height="16" viewBox="0 0 16 16" fill="none" xmlns="http://www.w3.org/2000/svg">
<path d="M14.7742 3.77062C14.2653 3.99575 13.7255 4.1436 13.1729 4.20928C13.7554 3.86091 14.1914 3.31263 14.3995 2.66662C13.8529 2.99195 13.2535 3.21995 12.6289 3.34328C12.2093 2.89434 11.6531 2.59659 11.0469 2.49634C10.4406 2.39609 9.81817 2.49895 9.27639 2.78892C8.73461 3.07889 8.30381 3.53974 8.05096 4.09981C7.79811 4.65989 7.73738 5.2878 7.87821 5.88595C6.76962 5.83039 5.6851 5.5423 4.69507 5.04039C3.70504 4.53849 2.83163 3.83398 2.13155 2.97262C1.88374 3.39825 1.75352 3.8821 1.75421 4.37462C1.75421 5.34128 2.24621 6.19528 2.99421 6.69528C2.55155 6.68135 2.11864 6.56181 1.73155 6.34662V6.38128C1.73168 7.02508 1.95446 7.64903 2.36211 8.14732C2.76976 8.64562 3.3372 8.9876 3.96821 9.11528C3.55729 9.22664 3.12642 9.24306 2.70821 9.16328C2.88613 9.71744 3.23288 10.2021 3.69994 10.5494C4.167 10.8966 4.73097 11.0891 5.31288 11.1C4.73453 11.5542 4.07233 11.8899 3.36413 12.0881C2.65594 12.2862 1.91563 12.3428 1.18555 12.2546C2.46001 13.0742 3.94361 13.5094 5.45888 13.5079C10.5875 13.5079 13.3922 9.25928 13.3922 5.57462C13.3922 5.45462 13.3889 5.33328 13.3835 5.21462C13.9295 4.82006 14.4006 4.3313 14.7749 3.77128L14.7742 3.77062Z" fill="#1DA1F2"/>
</svg>
